<?xml version="1.0" encoding="UTF-8" standalone="no"?>
<!-- Created with Inkscape (http://www.inkscape.org/) -->

<svg
   width="210mm"
   height="297mm"
   viewBox="0 0 210 297"
   version="1.1"
   id="svg5"
   inkscape:version="1.1.2 (0a00cf5339, 2022-02-04)"
   sodipodi:docname="logo.svg"
   inkscape:export-filename="/home/nwhitehead/projects/pybook/approot/logo.png"
   inkscape:export-xdpi="35.709198"
   inkscape:export-ydpi="35.709198"
   xmlns:inkscape="http://www.inkscape.org/namespaces/inkscape"
   xmlns:sodipodi="http://sodipodi.sourceforge.net/DTD/sodipodi-0.dtd"
   xmlns="http://www.w3.org/2000/svg"
   xmlns:svg="http://www.w3.org/2000/svg">
  <sodipodi:namedview
     id="namedview7"
     pagecolor="#ffffff"
     bordercolor="#666666"
     borderopacity="1.0"
     inkscape:pageshadow="2"
     inkscape:pageopacity="0"
     inkscape:pagecheckerboard="false"
     inkscape:document-units="mm"
     showgrid="false"
     inkscape:zoom="0.49260384"
     inkscape:cx="636.41404"
     inkscape:cy="293.33917"
     inkscape:window-width="1846"
     inkscape:window-height="1016"
     inkscape:window-x="74"
     inkscape:window-y="27"
     inkscape:window-maximized="1"
     inkscape:current-layer="layer1"
     inkscape:snap-global="false" />
  <defs
     id="defs2" />
  <g
     inkscape:label="Layer 1"
     inkscape:groupmode="layer"
     id="layer1"
     style="display:inline">
    <g
       id="g4723"
       transform="matrix(0,-1.5776162,1.5776162,0,4.6238093,258.87759)"
       style="display:inline">
      <rect
         style="fill:#000000;stroke:none;stroke-width:0.0444444;stroke-linejoin:round;stroke-miterlimit:4;stroke-dasharray:none"
         id="rect4517"
         width="1.1499355"
         height="0.18990119"
         x="112.53812"
         y="105.41"
         ry="0.094950594" />
      <rect
         style="fill:#000000;stroke:none;stroke-width:0.0444444;stroke-linejoin:round;stroke-miterlimit:4;stroke-dasharray:none"
         id="rect4556"
         width="1.1499355"
         height="0.18990119"
         x="151.82094"
         y="20.784283"
         ry="0.094950594"
         transform="rotate(35.347414)" />
      <rect
         style="fill:#000000;stroke:none;stroke-width:0.0444444;stroke-linejoin:round;stroke-miterlimit:4;stroke-dasharray:none"
         id="rect4638"
         width="1.1499355"
         height="0.18990119"
         x="29.751089"
         y="-151.32436"
         ry="0.094950594"
         transform="matrix(0.81565911,-0.57853281,-0.57853281,-0.81565911,0,0)" />
    </g>
    <g
       aria-label="Nathan's"
       id="text4235"
       style="font-size:16.5368px;letter-spacing:0px;word-spacing:0px;fill:#ff6600;stroke-width:0.413421"
       transform="translate(0.1898977,0.5696931)">
      <path
         d="m 36.853943,57.363855 c -0.115758,-0.446493 -0.496104,-0.661472 -0.859914,-0.909524 -0.429957,-0.281125 -0.859914,-0.297662 -1.289871,-0.115757 -0.562251,0.231515 -1.141039,0.496104 -1.65368,0.82684 -1.769437,1.107965 -3.40658,2.381299 -4.911429,3.820001 -0.165368,0.148831 -0.281126,0.314199 -0.41342,0.479567 l -0.429957,0.380346 c -0.08268,0.06615 -0.181905,0.198442 -0.248052,0.198442 -0.264589,-0.04961 -0.396883,0.165368 -0.545715,0.297662 -0.429956,0.36381 -0.859913,0.744156 -1.28987,1.124503 l -0.909524,0.793766 c -0.347273,0.297663 -0.694546,0.578788 -1.025282,0.876451 -0.363809,0.297662 -0.711082,0.628398 -1.074892,0.942597 0,-0.115757 0.03307,-0.198441 0.06615,-0.264589 1.306407,-2.133247 2.678961,-4.216884 3.919221,-6.383205 0.446494,-0.760692 1.025282,-1.405628 1.670217,-2.017489 0.04961,0.06615 0.08268,0.132294 0.115758,0.198441 0.08268,-0.08268 0.132294,-0.148831 0.198441,-0.231515 0.03307,0.09922 0.04961,0.165368 0.08268,0.248052 0.446494,-0.694545 0.231516,-1.174113 -0.777229,-1.65368 -0.09922,0.165368 -0.231515,0.314199 -0.3142,0.479567 -0.198441,0.41342 -0.363809,0.859914 -0.578788,1.256797 -0.09922,0.165368 -0.06615,0.36381 -0.214978,0.529178 -0.41342,0.479567 -0.77723,1.008745 -1.157576,1.504849 l -0.214978,0.297662 c -0.01654,0 -0.04961,-0.01654 -0.06615,-0.03307 0.03307,-0.08268 0.04961,-0.181904 0.08268,-0.330736 -0.41342,0.496104 -0.843376,0.926061 -1.174112,1.405628 -0.793767,1.124503 -1.55446,2.282079 -2.298616,3.439655 -0.628398,1.008745 -1.207186,2.050563 -1.802511,3.092382 -0.264589,0.479567 -0.479567,0.975671 -0.446493,1.570996 0.281125,0.132294 0.545714,0.248052 0.810303,0.363809 0.628398,-0.148831 1.504849,-0.843377 1.620606,-1.273333 -0.231515,0.132294 -0.46303,0.248052 -0.694545,0.363809 l -0.496104,0.429957 c 0.08268,-0.248052 0.231515,-0.396883 0.479567,-0.46303 0.148831,-0.132295 0.297662,-0.297663 0.479567,-0.41342 0.297662,-0.214979 0.644935,-0.36381 0.926061,-0.595325 0.760693,-0.578788 1.504849,-1.19065 2.232468,-1.802511 1.405628,-1.19065 2.794719,-2.397837 4.18381,-3.605023 0.04961,-0.04961 0.08268,-0.115758 0.115758,-0.181905 l -0.396883,0.281126 c -0.08268,0.06615 -0.132295,0.132294 -0.214979,0.181905 -0.06615,0.03307 -0.132294,0.04961 -0.214978,0.08268 -0.09922,-0.281126 0.03307,-0.479568 0.231515,-0.595325 0.446494,-0.297663 0.876451,-0.628399 1.405628,-0.793767 0.165368,-0.08268 0.330736,-0.148831 0.479567,-0.248052 l 1.372555,-0.942597 c 0.512641,-0.36381 0.992208,-0.744156 1.504849,-1.091429 0.628398,-0.429957 1.273333,-0.843377 1.984416,-1.107966 0.165368,-0.06615 0.347272,-0.09922 0.51264,-0.132294 0.148832,0.396883 0.181905,0.611862 0.115758,0.959134 -0.03307,0.198442 -0.08268,0.396884 -0.132294,0.595325 -0.429957,1.752901 -1.207187,3.390044 -1.901732,5.043724 -0.41342,1.008745 -0.942598,1.984416 -1.405628,2.993161 l -2.265542,4.845283 c -0.644935,1.405628 -1.322944,2.811256 -1.951342,4.233421 -0.744156,1.670216 -1.455239,3.35697 -1.868659,5.159481 -0.04961,0.248052 -0.115758,0.496104 -0.198442,0.760693 -0.248052,0.77723 -0.529177,1.537923 -0.777229,2.331689 -0.396883,1.339481 -0.496104,2.728572 -0.727619,4.101126 -0.165368,0.926061 -0.181905,1.852122 -0.115758,2.778183 0.01654,0.264589 0.04961,0.529178 0.115758,0.793766 0.297662,1.058356 1.33948,1.620607 2.414372,1.322944 0.711083,-0.198441 1.306408,-0.611861 1.852122,-1.107965 0.562251,-0.479567 0.843377,-1.141039 1.157576,-1.769438 -0.04961,-0.297662 -0.264589,-0.46303 -0.529177,-0.595325 -0.132295,0.132295 -0.330736,0.231516 -0.429957,0.396884 -0.463031,0.793766 -1.157576,1.306407 -1.918269,1.785974 -0.01654,0 -0.04961,0 -0.08268,0.01654 l -0.09922,-0.148831 c -0.330736,0.115757 -0.678009,0.181904 -1.025282,0.08268 -0.281125,-0.529178 -0.41342,-1.405628 -0.314199,-2.133248 0.165368,-1.174113 0.314199,-2.331689 0.479567,-3.489265 0.01654,-0.09922 0.04961,-0.181904 0.06615,-0.264588 L 26.32,85.575636 c 0.41342,-1.504849 0.760692,-3.042771 1.273333,-4.514547 0.628399,-1.769437 1.356018,-3.505801 2.116711,-5.209092 1.074892,-2.381299 2.215931,-4.729525 3.290823,-7.110824 1.025282,-2.215931 2.149784,-4.398789 2.89394,-6.747015 0.41342,-1.28987 0.793767,-2.57974 1.041819,-3.902684 0.04961,-0.231516 -0.01654,-0.479568 -0.08268,-0.72762 z m -10.021302,0.793767 c -0.396883,0.661472 -0.777229,1.322944 -1.273333,1.918269 0,0 -0.03307,-0.03307 -0.09922,-0.06615 0.380346,-0.678008 0.843377,-1.28987 1.372554,-1.852121 z m 0.826841,3.671169 c 0.03307,-0.148831 0.04961,-0.264588 0.08268,-0.380346 0.148831,-0.08268 0.281125,-0.181905 0.429956,-0.281126 l 1.504849,-1.28987 c 0.01654,-0.01654 0.04961,-0.01654 0.115758,-0.01654 -0.578788,0.793767 -1.389091,1.322944 -2.133247,1.967879 z m 3.125455,9.574808 c -0.446494,0.959134 -0.909524,1.918269 -1.339481,2.89394 -0.181905,0.396883 -0.264589,0.82684 -0.380346,1.256797 -0.04961,0.198441 -0.06615,0.41342 -0.148832,0.611861 -0.148831,0.380347 -0.347272,0.744156 -0.51264,1.124503 -0.281126,0.611861 -0.529178,1.256797 -0.77723,1.868658 -0.248052,0.595325 -0.529178,1.19065 -0.760693,1.785975 -0.148831,0.347273 -0.264589,0.711082 -0.429957,1.074892 0,-0.132295 0.01654,-0.264589 0.03307,-0.396883 -0.03307,-0.01654 -0.06615,-0.03307 -0.132295,-0.04961 0,-0.06615 -0.01654,-0.148831 0.01654,-0.214978 0.396883,-1.091429 0.77723,-2.199395 1.223724,-3.274287 0.595324,-1.455238 1.24026,-2.89394 1.885195,-4.316105 0.347273,-0.777229 0.727619,-1.537922 1.091429,-2.298615 0.08268,-0.148831 0.181904,-0.281126 0.281125,-0.41342 l 0.06615,0.06615 c -0.03307,0.09922 -0.06615,0.181905 -0.115757,0.281126 z m -5.027188,14.83351 c -0.148831,0.661472 -0.281125,1.306407 -0.347272,1.984416 -0.03307,0.330736 -0.132295,0.678009 -0.198442,1.008745 h -0.08268 c 0.01654,-0.562252 0.04961,-1.107966 0.06615,-1.65368 h -0.03307 c -0.08268,0.281125 -0.181905,0.562251 -0.264589,0.843376 0.132294,-1.405628 0.694545,-2.712035 0.926061,-4.084589 0.165368,0.644935 0.08268,1.273333 -0.06615,1.901732 z m -1.141039,3.175065 c -0.09922,-0.264588 -0.04961,-0.446493 0.165368,-0.628398 -0.06615,0.214978 -0.09922,0.396883 -0.165368,0.628398 z m 4.927967,1.570997 c -0.330736,0.578788 -0.727619,1.124502 -1.256797,1.554459 -0.132294,-0.04961 -0.214978,-0.08268 -0.330736,-0.115758 0.446494,-0.578788 1.207186,-0.793766 1.587533,-1.438701 z"
         style="-inkscape-font-specification:'Reey, Normal'"
         id="path4241" />
      <path
         d="m 38.788733,64.276238 c 0.330736,-0.231515 0.644935,-0.496104 0.992208,-0.711083 0.611862,-0.41342 1.256797,-0.82684 1.885195,-1.223723 0.181905,-0.115757 0.396884,-0.181905 0.611862,-0.281125 0.04961,0.09922 0.06615,0.148831 0.09922,0.198441 0.04961,0.04961 0.115757,0.08268 0.165368,0.132295 0.08268,-0.04961 0.165368,-0.08268 0.231515,-0.115758 0.214978,0.314199 0.248052,0.330736 0.611862,0.165368 0.198441,-0.446494 0.09922,-0.810303 -0.231516,-1.141039 -0.132294,-0.01654 -0.281125,-0.04961 -0.429956,-0.06615 0.01654,-0.115758 0.04961,-0.198442 0.06615,-0.281126 0.09922,0.03307 0.165368,0.06615 0.231515,0.08268 -0.214978,-0.248052 -0.446494,-0.479567 -0.793766,-0.380346 -0.214979,0.04961 -0.41342,0.165368 -0.611862,0.264588 -0.198442,0.09922 -0.36381,0.231516 -0.562251,0.281126 -0.463031,0.115758 -0.909524,0.297662 -1.306407,0.562251 -1.107966,0.760693 -2.083637,1.670217 -2.960088,2.678962 -0.41342,0.479567 -0.777229,0.992208 -1.141039,1.521386 -0.297662,0.46303 -0.479567,0.992208 -0.496104,1.570996 -0.01654,0.281125 0.08268,0.479567 0.330736,0.578788 0.496104,0.198441 1.008745,0.281125 1.521386,0.01654 0.41342,-0.214978 0.82684,-0.41342 1.223723,-0.661472 0.744156,-0.46303 1.488312,-0.942597 2.215931,-1.587532 -0.231515,0.08268 -0.380346,0.132294 -0.529177,0.198441 -0.06615,0.09922 -0.148832,0.165368 -0.281126,0.115758 -0.08268,0 -0.181905,0.01654 -0.248052,0.03307 0.132294,-0.214978 0.165368,-0.231515 0.330736,-0.181904 0.04961,-0.01654 0.09922,-0.01654 0.148831,-0.01654 l 1.422165,-1.008745 c -0.08268,0.181905 -0.115758,0.281126 -0.148831,0.36381 l -0.77723,1.521385 c -0.04961,0.09922 -0.132294,0.198442 -0.115757,0.281126 0.08268,0.330736 -0.09922,0.578788 -0.181905,0.87645 0.08268,0.06615 0.148831,0.132295 0.214978,0.198442 0.09922,-0.04961 0.165368,-0.08268 0.214979,-0.115758 l 0.264588,0.297663 c 0.148832,-0.297663 0.264589,-0.545715 0.380347,-0.793767 0.09922,-0.198441 0.165368,-0.41342 0.380346,-0.512641 -0.01654,-0.41342 0.281126,-0.678008 0.512641,-0.959134 -0.115758,0.347273 -0.297662,0.661472 -0.512641,0.959134 -0.09922,0.198442 -0.181905,0.396884 -0.264589,0.595325 -0.04961,0.148831 -0.165368,0.314199 -0.01654,0.496104 0.06615,-0.115757 0.132294,-0.214978 0.181904,-0.314199 l 1.389092,-2.794719 c 0.132294,-0.248052 0.264588,-0.496104 0.363809,-0.760693 0.148831,-0.41342 0.297663,-0.82684 0,-1.24026 -0.248052,-0.165368 -0.41342,0.06615 -0.628398,0.115757 l -0.248052,-0.562251 c -0.115758,0.06615 -0.231515,0.09922 -0.330736,0.165368 l -0.810303,0.644935 c -1.091429,0.810304 -2.166321,1.620607 -3.241213,2.43091 -0.297663,0.231515 -0.611862,0.41342 -1.008745,0.628399 0.165368,-0.281126 0.248052,-0.496104 0.380346,-0.661472 0.479568,-0.562252 0.892988,-1.174113 1.504849,-1.60407 z m 0.545715,1.984416 -0.09922,0.115758 c 0,-0.03307 -0.01654,-0.04961 -0.03307,-0.06615 z m -1.96788,0.661472 c -0.08268,0.132294 -0.115757,0.198442 -0.148831,0.264589 -0.06615,-0.01654 -0.132294,-0.04961 -0.231515,-0.08268 z m -0.992208,0.512641 c 0.09922,-0.01654 0.198442,-0.03307 0.297663,-0.06615 0.04961,0.132294 -0.03307,0.165368 -0.297663,0.06615 z"
         style="-inkscape-font-specification:'Reey, Normal'"
         id="path4243" />
      <path
         d="m 46.428733,68.724637 c 0.264588,0.231515 0.479567,0.181905 0.611861,-0.132294 0.04961,-0.132295 0.09922,-0.264589 0.115758,-0.396883 0.231515,-1.389092 0.694545,-2.728572 1.174113,-4.068053 0.281125,-0.760693 0.578788,-1.521386 0.892987,-2.315152 0.529177,-0.04961 1.025281,-0.09922 1.504849,-0.132295 0.297662,-0.03307 0.529177,0.04961 0.694545,0.314199 0.06615,0.09922 0.198442,0.214979 0.281126,0.198442 0.115758,-0.03307 0.181905,0 0.264589,0.06615 0.198441,0.181905 0.380346,0.132295 0.562251,-0.04961 -0.03307,-0.08268 -0.06615,-0.148831 -0.06615,-0.231515 0,-0.08268 0.03307,-0.165368 0.03307,-0.248052 0,-0.06615 -0.01654,-0.148832 -0.04961,-0.198442 -0.429957,-0.595325 -0.926061,-1.074892 -1.686754,-1.174113 -0.248052,-0.04961 -0.496104,-0.08268 -0.777229,-0.115757 0.08268,-0.165368 0.132294,-0.3142 0.198441,-0.446494 0.496104,-0.942598 0.959135,-1.901732 1.471776,-2.827793 0.297662,-0.545714 0.678008,-1.074892 0.992208,-1.620606 0.09922,-0.181905 0.181904,-0.41342 0.198441,-0.628399 0.01654,-0.297662 -0.198441,-0.46303 -0.46303,-0.545714 -0.08268,0.09922 -0.165368,0.198441 -0.248052,0.281125 -0.08268,-0.132294 -0.165368,-0.231515 -0.264589,-0.380346 -0.115758,0.181905 -0.214978,0.297662 -0.297662,0.446494 -0.82684,1.504849 -1.637144,3.009697 -2.447447,4.514546 -0.115758,0.214979 -0.198442,0.463031 -0.297662,0.694546 0.04961,-0.01654 0.09922,-0.04961 0.148831,-0.06615 0,0.01654 0.01654,0.01654 0.03307,0.03307 l -0.181904,0.198442 c -0.231516,0.562251 -0.512641,1.074892 -1.174113,1.207186 -0.06615,0.01654 -0.09922,0.06615 -0.165368,0.08268 -0.396883,0.148831 -0.810303,0.281126 -1.207187,0.41342 0.347273,-0.297662 0.810304,-0.41342 1.157576,-0.777229 -0.08268,0 -0.132294,-0.01654 -0.165368,0 -0.727619,0.264588 -1.488312,0.496104 -2.199394,0.810303 -0.479567,0.214978 -0.975671,0.496104 -1.074892,1.124502 0,0.01654 -0.03307,0.04961 -0.04961,0.06615 -0.3142,0.562252 -0.297663,1.091429 0.115757,1.587533 0.148831,0.165368 0.297663,0.330736 0.429957,0.512641 0.297662,0.41342 0.611862,0.793767 0.859914,1.223723 0.363809,0.611862 0.529177,1.306408 0.51264,2.01749 0,0.231515 -0.01654,0.46303 0.281126,0.545714 l 0.165368,-0.115757 c 0.03307,0.04961 0.06615,0.09922 0.115758,0.132294 z m 0.115757,-3.075845 c -0.512641,-0.694545 -1.025281,-1.372554 -1.521385,-2.050563 0.297662,-0.512641 1.504848,-1.107966 2.612814,-1.28987 z m -2.182857,-1.736364 c -0.115758,-0.165368 -0.281126,-0.314199 -0.06615,-0.529177 0.181905,0.181904 0.115758,0.363809 0.06615,0.529177 z"
         style="-inkscape-font-specification:'Reey, Normal'"
         id="path4245" />
      <path
         d="m 55.738928,58.653726 c 0.214979,-0.529178 0.396884,-1.041819 0.595325,-1.554459 0.132295,-0.281126 0.297663,-0.529178 0.396883,-0.810304 0.396884,-0.959134 0.793767,-1.951342 1.174113,-2.927013 0.165368,-0.429957 0.297663,-0.859914 0.446494,-1.273334 0.06615,-0.165368 0.08268,-0.297662 -0.09922,-0.380346 -0.41342,0.04961 -0.380346,0.51264 -0.711082,0.777229 0.06615,-0.198441 0.09922,-0.297662 0.148831,-0.380346 0.132294,-0.231515 0.264589,-0.446494 0.396883,-0.644935 0.115758,-0.165368 0.08268,-0.297663 -0.04961,-0.479568 -0.132295,0.3142 -0.248052,0.578788 -0.36381,0.892988 l -0.148831,-0.248052 c 0.06615,-0.231516 0.148831,-0.429957 0.231515,-0.661472 -0.132294,0.09922 -0.231515,0.198441 -0.281126,0.347272 -0.363809,0.892988 -0.760692,1.785975 -1.107965,2.695499 -0.810303,2.034026 -1.570996,4.051516 -2.381299,6.085542 -0.529178,1.389092 -1.124503,2.761646 -1.686754,4.134201 -0.36381,0.909524 -0.727619,1.835584 -1.058355,2.712035 0.115757,0.496104 0.479567,0.496104 0.793766,0.611861 0.09922,-0.181904 0.198442,-0.380346 0.297662,-0.578788 0.06615,0.03307 0.09922,0.06615 0.132295,0.08268 L 52.729231,66.641 c 0.578788,-0.92606 1.124502,-1.885195 1.70329,-2.811256 0.446494,-0.711082 0.909524,-1.372554 1.504849,-1.967879 0.181905,-0.165368 0.36381,-0.36381 0.644935,-0.380346 0.132295,0.231515 0.132295,0.496104 0.08268,0.760692 -0.115757,0.578788 -0.198441,1.207187 -0.363809,1.802512 -0.214979,0.793766 -0.479568,1.604069 -0.711083,2.414373 l -0.297662,1.025281 c -0.165368,0.562251 -0.347273,1.124503 -0.545715,1.670217 0,0.06615 0.01654,0.132294 0.03307,0.281126 0.165368,-0.36381 0.314199,-0.661472 0.479567,-1.008745 -0.01654,0.231515 -0.01654,0.363809 -0.01654,0.578788 0.08268,-0.248052 0.165368,-0.396883 0.198442,-0.562251 0.380346,-1.207187 0.744156,-2.414373 1.124502,-3.62156 0.281126,-0.909524 0.562252,-1.819048 0.72762,-2.761645 0.03307,-0.181905 -0.01654,-0.36381 0.165368,-0.496104 0.01654,0.330736 0.04961,0.678008 0.03307,1.008744 0,0.694546 -0.231515,1.372555 -0.446493,2.034027 -0.06615,0.231515 -0.231516,0.446494 -0.214979,0.694546 0.01654,0.363809 -0.181905,0.661472 -0.264589,0.975671 -0.165368,0.545714 -0.363809,1.074892 -0.545714,1.604069 -0.148831,0.429957 -0.231515,0.892988 -0.496104,1.273334 -0.132294,0.165368 -0.198442,0.347273 -0.281126,0.529178 -0.01654,0.04961 0,0.115757 0,0.181904 0.01654,0 0.04961,0.01654 0.06615,0 0.08268,-0.115757 0.148831,-0.231515 0.214978,-0.396883 0.09922,0.148831 0.181905,0.231515 0.248052,0.380347 0.09922,-0.231516 0.165368,-0.396884 0.231515,-0.578788 0.181905,-0.595325 0.380347,-1.19065 0.545715,-1.785975 0.363809,-1.306407 0.711082,-2.629351 1.074892,-3.935758 0.115757,-0.479568 0.214978,-0.942598 0.281125,-1.422165 0.08268,-0.479567 -0.04961,-0.926061 -0.314199,-1.322944 -0.148831,-0.198442 -0.264589,-0.231515 -0.496104,-0.198442 l -0.975671,0.165368 c 0.148831,-0.148831 0.231515,-0.198441 0.297662,-0.281125 -0.727619,0.115757 -1.141039,0.744156 -1.785974,1.174112 0.04961,-0.165368 0.06615,-0.231515 0.08268,-0.314199 0.347273,-0.892987 0.678009,-1.802511 1.025281,-2.695498 z m 1.65368,2.53013 c 0.181905,0.115758 0.198442,0.198442 0.06615,0.347273 -0.08268,-0.08268 -0.181905,-0.198442 -0.06615,-0.347273 z"
         style="-inkscape-font-specification:'Reey, Normal'"
         id="path4247" />
      <path
         d="m 61.162972,64.276238 c 0.330736,-0.231515 0.644935,-0.496104 0.992208,-0.711083 0.611862,-0.41342 1.256797,-0.82684 1.885195,-1.223723 0.181905,-0.115757 0.396884,-0.181905 0.611862,-0.281125 0.04961,0.09922 0.06615,0.148831 0.09922,0.198441 0.04961,0.04961 0.115757,0.08268 0.165368,0.132295 0.08268,-0.04961 0.165368,-0.08268 0.231515,-0.115758 0.214978,0.314199 0.248052,0.330736 0.611862,0.165368 0.198441,-0.446494 0.09922,-0.810303 -0.231516,-1.141039 -0.132294,-0.01654 -0.281125,-0.04961 -0.429956,-0.06615 0.01654,-0.115758 0.04961,-0.198442 0.06615,-0.281126 0.09922,0.03307 0.165368,0.06615 0.231515,0.08268 -0.214978,-0.248052 -0.446494,-0.479567 -0.793766,-0.380346 -0.214979,0.04961 -0.41342,0.165368 -0.611862,0.264588 -0.198442,0.09922 -0.36381,0.231516 -0.562251,0.281126 -0.463031,0.115758 -0.909524,0.297662 -1.306407,0.562251 -1.107966,0.760693 -2.083637,1.670217 -2.960088,2.678962 -0.41342,0.479567 -0.777229,0.992208 -1.141039,1.521386 -0.297662,0.46303 -0.479567,0.992208 -0.496104,1.570996 -0.01654,0.281125 0.08268,0.479567 0.330736,0.578788 0.496104,0.198441 1.008745,0.281125 1.521386,0.01654 0.41342,-0.214978 0.82684,-0.41342 1.223723,-0.661472 0.744156,-0.46303 1.488312,-0.942597 2.215931,-1.587532 -0.231515,0.08268 -0.380346,0.132294 -0.529177,0.198441 -0.06615,0.09922 -0.148832,0.165368 -0.281126,0.115758 -0.08268,0 -0.181905,0.01654 -0.248052,0.03307 0.132294,-0.214978 0.165368,-0.231515 0.330736,-0.181904 0.04961,-0.01654 0.09922,-0.01654 0.148831,-0.01654 l 1.422165,-1.008745 c -0.08268,0.181905 -0.115758,0.281126 -0.148831,0.36381 l -0.77723,1.521385 c -0.04961,0.09922 -0.132294,0.198442 -0.115757,0.281126 0.08268,0.330736 -0.09922,0.578788 -0.181905,0.87645 0.08268,0.06615 0.148831,0.132295 0.214978,0.198442 0.09922,-0.04961 0.165368,-0.08268 0.214979,-0.115758 l 0.264588,0.297663 c 0.148832,-0.297663 0.264589,-0.545715 0.380347,-0.793767 0.09922,-0.198441 0.165368,-0.41342 0.380346,-0.512641 -0.01654,-0.41342 0.281126,-0.678008 0.512641,-0.959134 -0.115758,0.347273 -0.297662,0.661472 -0.512641,0.959134 -0.09922,0.198442 -0.181905,0.396884 -0.264589,0.595325 -0.04961,0.148831 -0.165368,0.314199 -0.01654,0.496104 0.06615,-0.115757 0.132294,-0.214978 0.181904,-0.314199 l 1.389092,-2.794719 c 0.132294,-0.248052 0.264588,-0.496104 0.363809,-0.760693 0.148831,-0.41342 0.297663,-0.82684 0,-1.24026 -0.248052,-0.165368 -0.41342,0.06615 -0.628398,0.115757 l -0.248052,-0.562251 c -0.115758,0.06615 -0.231515,0.09922 -0.330736,0.165368 l -0.810303,0.644935 c -1.091429,0.810304 -2.166321,1.620607 -3.241213,2.43091 -0.297663,0.231515 -0.611862,0.41342 -1.008745,0.628399 0.165368,-0.281126 0.248052,-0.496104 0.380346,-0.661472 0.479567,-0.562252 0.892988,-1.174113 1.504849,-1.60407 z m 0.545715,1.984416 -0.09922,0.115758 c 0,-0.03307 -0.01654,-0.04961 -0.03307,-0.06615 z m -1.96788,0.661472 c -0.08268,0.132294 -0.115757,0.198442 -0.148831,0.264589 -0.06615,-0.01654 -0.132294,-0.04961 -0.231515,-0.08268 z m -0.992208,0.512641 c 0.09922,-0.01654 0.198442,-0.03307 0.297663,-0.06615 0.04961,0.132294 -0.03307,0.165368 -0.297663,0.06615 z"
         style="-inkscape-font-specification:'Reey, Normal'"
         id="path4249" />
      <path
         d="m 72.441066,62.771389 c -0.396883,-0.578788 -1.422165,-0.892987 -2.050563,-0.01654 0.06615,0.03307 0.115757,0.06615 0.198441,0.132295 -0.248052,0.09922 -0.479567,0.181904 -0.727619,0.264588 0.04961,-0.148831 0.08268,-0.214978 0.148831,-0.396883 l -0.892987,0.446494 c 0.04961,-0.198442 0.148831,-0.396883 0.264589,-0.562251 0.181904,-0.214979 0.429956,-0.41342 0.214978,-0.744156 -0.01654,-0.01654 0.06615,-0.09922 0.06615,-0.165368 0,-0.06615 -0.01654,-0.148832 -0.03307,-0.214979 -0.248052,0.380347 -0.512641,0.678009 -0.760693,1.041819 0.06615,-0.330736 0.132294,-0.661472 -0.04961,-0.959135 0.132295,-0.132294 0.264589,-0.248052 0.41342,-0.380346 -0.09922,-0.115758 -0.148831,-0.165368 -0.248052,-0.248052 -0.46303,0.479567 -0.744156,1.041818 -1.041818,1.604069 0.08268,0 0.148831,-0.01654 0.181905,-0.01654 l -0.446494,0.843376 c -0.314199,0.628399 -0.678009,1.256797 -0.82684,1.951343 -0.08268,0.330736 -0.165368,0.661472 -0.214978,0.992208 -0.01654,0.264589 0.115757,0.380346 0.363809,0.281126 0.132295,-0.04961 0.248052,-0.181905 0.330736,-0.281126 0.992208,-1.141039 2.166321,-2.034026 3.538876,-2.662425 0.214978,-0.09922 0.429957,-0.181905 0.727619,-0.132294 0.01654,0.181905 0.04961,0.347273 0.03307,0.529177 -0.03307,0.198442 -0.08268,0.41342 -0.148832,0.595325 0,0.06615 -0.03307,0.165368 -0.08268,0.198442 -0.231515,0.231515 -0.264588,0.545714 -0.330736,0.82684 -0.148831,0.496104 -0.281125,0.975671 -0.396883,1.471775 l -0.429957,1.769438 c -0.06615,0.330736 0.01654,0.479567 0.330736,0.628398 0.06615,0.03307 0.148832,0.04961 0.198442,0.115758 0.198442,0.231515 0.446494,0.181904 0.644935,0.08268 0.264589,-0.264589 0.347273,-0.512641 0.264589,-0.843377 -0.04961,-0.132295 -0.01654,-0.297663 0.01654,-0.446494 l 0.198441,-0.777229 c 0.281126,-1.124503 0.562252,-2.232468 0.859914,-3.356971 0.148831,-0.578788 0,-1.107966 -0.314199,-1.570996 z m -4.283032,-0.231515 c 0,-0.04961 -0.01654,-0.08268 0,-0.115758 0.04961,-0.06615 0.09922,-0.09922 0.132295,-0.165368 0.09922,0.165368 -0.01654,0.231515 -0.132295,0.281126 z"
         style="-inkscape-font-specification:'Reey, Normal'"
         id="path4251" />
      <path
         d="m 74.458532,61.746107 c 0.926061,-0.744156 1.620607,-2.960087 1.306407,-4.200347 h -0.347272 c -0.09922,-0.115757 -0.181905,-0.214978 -0.248052,-0.314199 -0.198442,0.115758 -0.36381,0.231515 -0.496104,0.314199 -0.04961,0.181905 -0.09922,0.330736 -0.132295,0.429957 0.09922,0.132294 0.198442,0.231515 0.231515,0.330736 0.181905,0.578788 0.06615,1.124502 -0.09922,1.670217 -0.132295,0.380346 -0.347273,0.611861 -0.72762,0.644935 -0.181904,0.03307 -0.314199,0.06615 -0.41342,0.214978 -0.01654,0.03307 -0.01654,0.08268 -0.01654,0.132295 0.148831,0.03307 0.281125,0.04961 0.429956,0.06615 -0.01654,0.09922 -0.01654,0.181905 -0.01654,0.231515 l -0.330736,0.165368 c 0.132294,0.545715 0.529177,0.314199 0.859913,0.314199 z"
         style="-inkscape-font-specification:'Reey, Normal'"
         id="path4253" />
      <path
         d="m 75.401116,68.030092 c 0.264589,-0.03307 0.529178,-0.08268 0.810304,-0.06615 0.711082,0.01654 1.422164,-0.06615 2.11671,-0.281125 0.793766,-0.248052 1.256797,-0.77723 1.537922,-1.521386 0.03307,-0.115757 0.01654,-0.248052 0,-0.380346 -0.03307,-0.297663 -0.08268,-0.595325 -0.115757,-0.892987 l -0.248052,-2.414373 c 0,-0.04961 0.01654,-0.115758 0.01654,-0.132295 0.843376,-0.479567 1.736364,-0.545714 2.645888,-0.595325 0.03307,0.04961 0.04961,0.132295 0.08268,0.198442 0.347272,0 0.545714,-0.181905 0.628398,-0.446494 0.03307,-0.562251 -0.41342,-0.793766 -0.744156,-1.008744 -0.36381,-0.264589 -0.82684,-0.09922 -1.223723,0.01654 l -0.01654,0.06615 c 0.03307,0.04961 0.04961,0.08268 0.08268,0.115757 -1.025282,0.314199 -1.934806,0.793767 -2.53013,1.736364 -0.03307,-0.09922 -0.04961,-0.165368 -0.08268,-0.297662 -0.115758,0.545714 0.06615,1.008745 0.148831,1.471775 0.06615,0.36381 0.198441,0.727619 0.248052,1.091429 0.115757,0.959134 0.06615,1.207186 -0.892987,1.60407 -0.496104,0.181904 -0.975672,0.347272 -1.537923,0.264588 -0.496104,-0.06615 -1.008745,0.01654 -1.521386,0.03307 -0.198441,0 -0.264588,0.115758 -0.363809,0.281126 -0.132295,0.214978 -0.08268,0.46303 -0.231515,0.678008 0.363809,0.264589 0.711082,0.512641 1.190649,0.479568 z m 3.571949,-5.870565 c -0.01654,-0.01654 -0.03307,-0.03307 -0.03307,-0.04961 l 0.04961,-0.04961 c 0.01654,0.01654 0.01654,0.03307 0.01654,0.03307 -0.01654,0.03307 -0.03307,0.04961 -0.03307,0.06615 z"
         style="-inkscape-font-specification:'Reey, Normal'"
         id="path4255" />
    </g>
    <text
       xml:space="preserve"
       style="font-style:italic;font-variant:normal;font-weight:bold;font-stretch:normal;font-size:15.3665px;line-height:1.25;font-family:sans-serif;-inkscape-font-specification:'sans-serif, Bold Italic';font-variant-ligatures:normal;font-variant-caps:normal;font-variant-numeric:normal;font-variant-east-asian:normal;letter-spacing:0px;word-spacing:0px;fill:#000000;fill-opacity:1;stroke:none;stroke-width:0.4;stroke-linejoin:round;stroke-miterlimit:4;stroke-dasharray:none"
       x="34.374737"
       y="84.134628"
       id="text4239"><tspan
         sodipodi:role="line"
         id="tspan4237"
         style="font-style:italic;font-variant:normal;font-weight:bold;font-stretch:normal;font-size:15.3665px;font-family:sans-serif;-inkscape-font-specification:'sans-serif, Bold Italic';font-variant-ligatures:normal;font-variant-caps:normal;font-variant-numeric:normal;font-variant-east-asian:normal;fill:#000000;stroke:none;stroke-width:0.4;stroke-linejoin:round;stroke-miterlimit:4;stroke-dasharray:none"
         x="34.374737"
         y="84.134628">Python Console</tspan></text>
    <rect
       style="fill:#008000;stroke:none;stroke-width:0.4;stroke-linejoin:round;stroke-miterlimit:4;stroke-dasharray:none"
       id="rect4314"
       width="13.280297"
       height="3.4181595"
       x="141.56334"
       y="71.377129"
       ry="1.7090797" />
    <rect
       style="fill:#008000;stroke:none;stroke-width:0.4;stroke-linejoin:round;stroke-miterlimit:4;stroke-dasharray:none"
       id="rect4890"
       width="13.280297"
       height="3.4181595"
       x="159.33575"
       y="71.511398"
       ry="1.7090797" />
    <rect
       style="fill:#008000;stroke:none;stroke-width:0.4;stroke-linejoin:round;stroke-miterlimit:4;stroke-dasharray:none"
       id="rect5073"
       width="7.9091854"
       height="3.4181519"
       x="66.714622"
       y="-155.1494"
       ry="1.6419369"
       transform="rotate(90)" />
    <rect
       style="fill:#008000;stroke:none;stroke-width:0.4;stroke-linejoin:round;stroke-miterlimit:4;stroke-dasharray:none"
       id="rect5174"
       width="7.9091854"
       height="3.4181519"
       x="66.983177"
       y="-162.70872"
       ry="1.7090759"
       transform="rotate(90)" />
    <rect
       style="fill:#008000;stroke:none;stroke-width:0.4;stroke-linejoin:round;stroke-miterlimit:4;stroke-dasharray:none"
       id="rect5176"
       width="10.863301"
       height="3.4181595"
       x="151.81619"
       y="66.77195"
       ry="1.5748018" />
    <rect
       style="fill:#008000;stroke:none;stroke-width:0.4;stroke-linejoin:round;stroke-miterlimit:4;stroke-dasharray:none"
       id="rect5390"
       width="7.9091854"
       height="3.4181519"
       x="71.682907"
       y="-172.74776"
       ry="1.6419369"
       transform="rotate(90)" />
    <rect
       style="display:inline;fill:#000000;stroke:none;stroke-width:0.355556;stroke-linejoin:round;stroke-miterlimit:4;stroke-dasharray:none"
       id="rect4396"
       width="1.0971787"
       height="1.5191811"
       x="-78.083214"
       y="170.84956"
       ry="0.75959057"
       transform="rotate(-90)" />
    <rect
       style="display:inline;fill:#000000;stroke:none;stroke-width:0.355556;stroke-linejoin:round;stroke-miterlimit:4;stroke-dasharray:none"
       id="rect4515"
       width="1.0971787"
       height="1.5191811"
       x="-76.67746"
       y="170.84956"
       ry="0.75959057"
       transform="rotate(-90)" />
  </g>
</svg>
